<svg width="738" height="592" viewBox="0 0 738 592" fill="none" xmlns="http://www.w3.org/2000/svg">
<ellipse opacity="0.5" cx="692.585" cy="529.995" rx="21.906" ry="20.0735" fill="#4E887A"/>
<ellipse opacity="0.5" cx="685.105" cy="577.976" rx="14.4259" ry="13.2191" fill="#4E887A"/>
<ellipse opacity="0.5" cx="726.246" cy="556.923" rx="11.7544" ry="10.7711" fill="#4E887A"/>
<path opacity="0.5" d="M7 553.48L24.01 538.098C29.7226 532.932 38.4191 532.932 44.1316 538.098L51.0808 544.382C56.7934 549.548 65.4899 549.548 71.2024 544.382L88.2125 529" stroke="#4E887A" stroke-width="13" stroke-linecap="round"/>
<path opacity="0.5" d="M86.3585 565.23L103.368 549.848C109.081 544.682 117.778 544.682 123.49 549.848L130.439 556.132C136.152 561.298 144.848 561.298 150.561 556.132L167.571 540.75" stroke="#4E887A" stroke-width="13" stroke-linecap="round"/>
<path opacity="0.5" d="M540.312 86.1692L557.322 70.7872C563.034 65.6214 571.731 65.6214 577.443 70.7872L584.393 77.0713C590.105 82.2371 598.802 82.2371 604.514 77.0713L621.524 61.6893" stroke="#4E887A" stroke-width="13" stroke-linecap="round"/>
<path opacity="0.5" d="M626.867 97.9194L643.877 82.5375C649.59 77.3717 658.286 77.3717 663.999 82.5375L670.948 88.8216C676.66 93.9874 685.357 93.9874 691.07 88.8216L708.08 73.4396" stroke="#4E887A" stroke-width="13" stroke-linecap="round"/>
<ellipse opacity="0.5" cx="32.1996" cy="15.1775" rx="16.5631" ry="15.1775" fill="#4E887A"/>
<ellipse opacity="0.5" cx="26.8567" cy="51.4078" rx="11.2201" ry="10.2815" fill="#4E887A"/>
<ellipse opacity="0.5" cx="57.8457" cy="35.7406" rx="9.08297" ry="8.32316" fill="#4E887A"/>
</svg>
